HIERARCHY
ROOT Hips
{
	OFFSET 0.000000 0.000000 0.000000
	CHANNELS 6 Xposition Yposition Zposition Zrotation Yrotation Xrotation 
	JOINT LeftUpLeg_virtual
	{
		OFFSET 0.000000 0.000000 0.000000
		CHANNELS 3 Zrotation Yrotation Xrotation
		JOINT LeftUpLeg
		{
			OFFSET 10.205400 -3.823500 0.155100
			CHANNELS 3 Zrotation Yrotation Xrotation
			JOINT LeftLeg
			{
				OFFSET 0.708757 -12.982077 0.567790
				CHANNELS 3 Zrotation Yrotation Xrotation
				JOINT LeftFoot
				{
					OFFSET -0.708756 -10.717838 -2.184338
					CHANNELS 3 Zrotation Yrotation Xrotation
					JOINT LeftToeBase
					{
						OFFSET 0.108149 -7.191104 7.560241
						CHANNELS 3 Zrotation Yrotation Xrotation
						End Site
						{
							OFFSET 0.000000 0.000000 0.000000
						}
					}
				}
			}
		}
	}
	JOINT RightUpLeg_virtual
	{
		OFFSET 0.000000 0.000000 0.000000
		CHANNELS 3 Zrotation Yrotation Xrotation
		JOINT RightUpLeg
		{
			OFFSET -10.205400 -3.823500 0.005500
			CHANNELS 3 Zrotation Yrotation Xrotation
			JOINT RightLeg
			{
				OFFSET -0.708756 -12.982134 0.610632
				CHANNELS 3 Zrotation Yrotation Xrotation
				JOINT RightFoot
				{
					OFFSET 0.708754 -10.717769 -1.945823
					CHANNELS 3 Zrotation Yrotation Xrotation
					JOINT RightToeBase
					{
						OFFSET -0.108140 -7.191069 7.372968
						CHANNELS 3 Zrotation Yrotation Xrotation
						End Site
						{
							OFFSET 0.000000 0.000000 0.000000
						}
					}
				}
			}
		}
	}
	JOINT Spine_virtual
	{
		OFFSET 0.000000 0.000000 0.000000
		CHANNELS 3 Zrotation Yrotation Xrotation
		JOINT Spine
		{
			OFFSET 0.000000 6.876099 0.125700
			CHANNELS 3 Zrotation Yrotation Xrotation
			JOINT Spine1
			{
				OFFSET 0.000000 8.022060 0.146608
				CHANNELS 3 Zrotation Yrotation Xrotation
				JOINT Spine2
				{
					OFFSET 0.000000 9.168068 0.167552
					CHANNELS 3 Zrotation Yrotation Xrotation
					JOINT Neck_virtual
					{
						OFFSET 0.000000 0.000000 0.000000
						CHANNELS 3 Zrotation Yrotation Xrotation
						JOINT Neck
						{
							OFFSET 0.000000 10.314075 0.188496
							CHANNELS 3 Zrotation Yrotation Xrotation
							JOINT Head
							{
								OFFSET 0.000000 7.643700 -2.377400
								CHANNELS 3 Zrotation Yrotation Xrotation
								End Site
								{
									OFFSET 0.000000 0.000000 0.000000
								}
							}
						}
					}
					JOINT LeftShoulder_virtual
					{
						OFFSET 0.000000 0.000000 0.000000
						CHANNELS 3 Zrotation Yrotation Xrotation
						JOINT LeftShoulder
						{
							OFFSET 4.392200 8.824978 0.174984
							CHANNELS 3 Zrotation Yrotation Xrotation
							JOINT LeftArm
							{
								OFFSET 8.771219 -2.981674 -0.026999
								CHANNELS 3 Zrotation Yrotation Xrotation
								JOINT LeftForeArm
								{
									OFFSET 8.512804 0.000000 -0.000000
									CHANNELS 3 Zrotation Yrotation Xrotation
									JOINT LeftHand
									{
										OFFSET 18.484802 0.000000 -0.000000
										CHANNELS 3 Zrotation Yrotation Xrotation
										End Site
										{
											OFFSET 0.000000 0.000000 0.000000
										}
									}
								}
							}
						}
					}
					JOINT RightShoulder_virtual
					{
						OFFSET 0.000000 0.000000 0.000000
						CHANNELS 3 Zrotation Yrotation Xrotation
						JOINT RightShoulder
						{
							OFFSET -4.392200 8.824993 0.141379
							CHANNELS 3 Zrotation Yrotation Xrotation
							JOINT RightArm
							{
								OFFSET -8.771282 -2.981682 -0.094208
								CHANNELS 3 Zrotation Yrotation Xrotation
								JOINT RightForeArm
								{
									OFFSET -8.494598 0.000000 0.000000
									CHANNELS 3 Zrotation Yrotation Xrotation
									JOINT RightHand
									{
										OFFSET -18.483803 0.000000 0.000001
										CHANNELS 3 Zrotation Yrotation Xrotation
										End Site
										{
											OFFSET 0.000000 0.000000 0.000000
										}
									}
								}
							}
						}
					}
				}
			}
		}
	}
}
MOTION
Frames: 7
Frame Time: 0.033333
2.240418 36.153648 6.322883 179.820426 5.415043 179.972889 -3.124474 -2.818883 10.839906 -10.883374 -1.049672 -19.679959 9.645393 7.105210 14.912009 -4.592714 0.128497 9.262205 0.000000 0.000000 0.000000 2.216009 -1.666654 8.780667 6.534425 -0.573805 -9.973038 -5.755349 1.066993 12.435093 5.754022 6.627541 12.952151 0.000000 0.000000 0.000000 1.275381 0.904689 -1.003105 -4.606481 0.700142 -4.854595 1.024026 -3.982355 3.011999 0.048864 -0.005159 0.007204 0.436912 -2.167952 5.047745 0.874138 0.697475 -0.631451 0.000000 0.000000 0.000000 1.804674 -1.189985 2.507608 1.191524 -1.985153 -5.538744 -20.260115 33.457982 -33.830361 -6.380976 -32.698752 -4.949823 0.000000 0.000000 0.000000 -1.552359 -0.538385 2.056202 8.995169 -6.172870 -9.736387 21.208091 -33.126274 -32.641635 -2.665960 32.309428 -4.601110 0.000000 0.000000 0.000000 
2.233186 36.145847 6.330406 179.797162 5.434486 179.977370 -3.152790 -2.857771 10.888974 -10.913812 -0.910876 -19.580207 9.512656 7.403633 15.050187 -4.379449 0.306034 8.968364 0.000000 0.000000 0.000000 2.385278 -1.681241 8.612629 6.427071 -0.294048 -10.129283 -5.625853 1.719546 12.712015 5.894391 6.911636 13.351655 0.000000 0.000000 0.000000 1.242594 0.930417 -0.990942 -4.581939 0.733212 -4.830950 1.030682 -3.956837 3.002714 0.041524 0.016912 0.000928 0.411658 -2.241143 5.050097 0.911472 0.567250 -0.564988 0.000000 0.000000 0.000000 1.800642 -1.225184 2.529777 1.225984 -2.021444 -5.526029 -20.397971 33.531851 -33.923057 -6.434057 -32.711859 -4.856197 0.000000 0.000000 0.000000 -1.578898 -0.558939 2.058808 9.026356 -6.197782 -9.685092 21.245442 -33.108960 -32.723300 -2.629731 32.424103 -4.552759 0.000000 0.000000 0.000000 
2.227459 36.140938 6.336195 179.875914 5.495185 -179.933506 -3.076469 -2.836520 10.797685 -10.957750 -0.878732 -19.606441 9.606031 7.452395 15.105071 -4.373871 0.266690 8.968400 0.000000 0.000000 0.000000 2.434101 -1.575843 8.527209 6.417749 -0.386572 -10.162683 -5.606028 1.626812 12.770371 5.894194 6.883591 13.286488 0.000000 0.000000 0.000000 1.322630 0.931687 -1.027282 -4.503066 0.724277 -4.852901 0.938141 -3.965198 2.980062 -0.029202 0.009838 -0.008171 0.520983 -2.259627 5.073906 0.920117 0.647768 -0.509973 0.000000 0.000000 0.000000 1.914592 -1.181577 2.534004 1.252598 -2.037161 -5.521208 -20.450529 33.635164 -33.873695 -6.474072 -32.722856 -4.892137 0.000000 0.000000 0.000000 -1.460722 -0.527134 2.083367 9.088332 -6.140831 -9.663666 21.274692 -33.155815 -32.659636 -2.617882 32.573988 -4.590283 0.000000 0.000000 0.000000 
2.231000 36.137650 6.340150 179.845383 5.510936 -179.985074 -3.075073 -2.824282 10.797790 -10.955516 -0.893269 -19.581908 9.563505 7.429860 15.115876 -4.356761 0.275473 8.970960 0.000000 0.000000 0.000000 2.429584 -1.564566 8.537275 6.402796 -0.408060 -10.251139 -5.580297 1.722670 13.010657 5.959391 6.868606 13.314906 0.000000 0.000000 0.000000 1.305711 0.951805 -0.968062 -4.457224 0.718986 -4.794830 0.952421 -3.960457 2.966386 -0.025882 0.017384 -0.028881 0.529139 -2.240527 5.052896 0.970000 0.630754 -0.423152 0.000000 0.000000 0.000000 1.904643 -1.174587 2.530108 1.273772 -2.143201 -5.463595 -20.526455 33.653872 -33.831737 -6.421451 -32.667398 -4.852626 0.000000 0.000000 0.000000 -1.471478 -0.520641 2.048984 9.117299 -6.118427 -9.565292 21.418930 -33.227518 -32.738620 -2.556621 32.750129 -4.593027 0.000000 0.000000 0.000000 
2.240478 36.133068 6.350402 179.860273 5.563216 -179.993953 -3.047119 -2.795465 10.800329 -11.030190 -0.951774 -19.624862 9.694075 7.491398 15.144415 -4.339863 0.235869 8.991031 0.000000 0.000000 0.000000 2.451015 -1.512231 8.536898 6.394838 -0.513078 -10.335317 -5.555564 1.693647 13.182262 5.954083 6.845335 13.285939 0.000000 0.000000 0.000000 1.352693 0.927267 -0.930961 -4.383084 0.666007 -4.764804 0.951786 -3.983443 2.942227 -0.011305 -0.016006 0.003048 0.485654 -2.157466 4.979107 1.031548 0.606212 -0.348624 0.000000 0.000000 0.000000 1.863570 -1.130108 2.457786 1.248651 -2.227809 -5.353571 -20.589095 33.544589 -33.634146 -6.331869 -32.509768 -4.683781 0.000000 0.000000 0.000000 -1.522340 -0.444459 1.995664 9.202265 -5.979245 -9.523474 21.529644 -33.288819 -32.765766 -2.507613 32.844857 -4.610371 0.000000 0.000000 0.000000 
2.254899 36.128944 6.368262 179.947331 5.624056 -179.919450 -2.890630 -2.782852 10.790418 -11.074330 -0.961625 -19.749415 9.926016 7.660090 15.208722 -4.432188 0.101343 9.033607 0.000000 0.000000 0.000000 2.544451 -1.467043 8.536371 6.435818 -0.514374 -10.496186 -5.565741 1.801215 13.265231 5.980039 6.694111 13.269790 0.000000 0.000000 0.000000 1.406300 0.995491 -0.922601 -4.269559 0.690496 -4.741501 0.980460 -3.950737 2.895170 0.018624 0.014704 0.068386 0.432700 -2.127084 4.892940 1.037185 0.507817 -0.246712 0.000000 0.000000 0.000000 1.799640 -1.164093 2.388572 1.182141 -2.482362 -5.269389 -20.640219 33.364993 -33.493888 -6.323654 -32.309964 -4.515005 0.000000 0.000000 0.000000 -1.587268 -0.527005 1.911029 9.213399 -5.971974 -9.346269 21.921369 -33.304665 -33.208158 -2.392970 32.848309 -4.593295 0.000000 0.000000 0.000000 
2.271678 36.130096 6.401184 179.857432 5.714596 -179.978244 -3.022418 -2.679786 10.871933 -11.103670 -0.650517 -19.835639 9.880992 7.229258 15.135641 -4.506803 0.054262 9.045309 0.000000 0.000000 0.000000 2.471647 -1.389692 8.644588 6.449213 -0.612047 -10.643459 -5.520225 1.703303 13.326670 5.964697 6.758551 13.307949 0.000000 0.000000 0.000000 1.370834 1.027043 -0.850539 -4.199530 0.686809 -4.655959 0.963986 -3.935003 2.894710 -0.004745 0.022096 0.000154 0.491341 -2.181554 4.920798 1.086493 0.442255 -0.092471 0.000000 0.000000 0.000000 1.838615 -1.169484 2.385857 1.088787 -2.643783 -5.082894 -20.756014 33.325736 -33.160490 -6.177670 -32.229873 -4.433484 0.000000 0.000000 0.000000 -1.516876 -0.489630 1.930251 9.272443 -5.865076 -9.166737 22.215511 -33.288774 -33.426925 -2.410972 32.791526 -4.676597 0.000000 0.000000 0.000000 
